<?xml version="1.0" encoding="UTF-8" standalone="no"?>
<!-- Created with Inkscape (http://www.inkscape.org/) -->

<svg
   width="43.166mm"
   height="29.382mm"
   viewBox="0 0 43.166001 29.382"
   version="1.1"
   id="svg1"
   xml:space="preserve"
   inkscape:version="1.4.4 (dcaf3e7, 2026-05-05)"
   sodipodi:docname="pyaml-logo.svg"
   xmlns:inkscape="http://www.inkscape.org/namespaces/inkscape"
   xmlns:sodipodi="http://sodipodi.sourceforge.net/DTD/sodipodi-0.dtd"
   xmlns:xlink="http://www.w3.org/1999/xlink"
   xmlns="http://www.w3.org/2000/svg"
   xmlns:svg="http://www.w3.org/2000/svg"
   xmlns:rdf="http://www.w3.org/1999/02/22-rdf-syntax-ns#"
   xmlns:cc="http://creativecommons.org/ns#"
   xmlns:dc="http://purl.org/dc/elements/1.1/"><title
     id="title1">pyAML logo</title><sodipodi:namedview
     id="namedview1"
     pagecolor="#ffffff"
     bordercolor="#000000"
     borderopacity="0.25"
     inkscape:showpageshadow="2"
     inkscape:pageopacity="0.0"
     inkscape:pagecheckerboard="0"
     inkscape:deskcolor="#d1d1d1"
     inkscape:document-units="mm"
     inkscape:zoom="1.0396254"
     inkscape:cx="371.76852"
     inkscape:cy="306.36035"
     inkscape:window-width="1746"
     inkscape:window-height="1229"
     inkscape:window-x="798"
     inkscape:window-y="124"
     inkscape:window-maximized="0"
     inkscape:current-layer="layer1"
     showguides="false" /><defs
     id="defs1"><linearGradient
       id="linearGradient163"
       inkscape:collect="always"><stop
         style="stop-color:#abaaff;stop-opacity:1;"
         offset="0"
         id="stop163" /><stop
         style="stop-color:#323232;stop-opacity:1;"
         offset="1"
         id="stop164" /></linearGradient><linearGradient
       id="linearGradient160"
       inkscape:collect="always"><stop
         style="stop-color:#9291ff;stop-opacity:1;"
         offset="0"
         id="stop161" /><stop
         style="stop-color:#646464;stop-opacity:1;"
         offset="1"
         id="stop162" /></linearGradient><linearGradient
       id="linearGradient150"
       inkscape:collect="always"><stop
         style="stop-color:#808080;stop-opacity:1;"
         offset="0"
         id="stop151" /><stop
         style="stop-color:#ffffff;stop-opacity:1;"
         offset="0.51028383"
         id="stop152" /><stop
         style="stop-color:#808080;stop-opacity:1;"
         offset="1"
         id="stop153" /></linearGradient><linearGradient
       id="swatch145"
       inkscape:swatch="solid"><stop
         style="stop-color:#0000f4;stop-opacity:1;"
         offset="0"
         id="stop146" /></linearGradient><linearGradient
       inkscape:collect="always"
       xlink:href="#linearGradient150"
       id="linearGradient152"
       x1="29.801929"
       y1="52.358398"
       x2="60.646656"
       y2="52.358398"
       gradientUnits="userSpaceOnUse"
       gradientTransform="matrix(0.98800016,0,0,0.94435716,-18.410682,-78.028226)" /><linearGradient
       inkscape:collect="always"
       xlink:href="#linearGradient160"
       id="linearGradient162"
       x1="44.081745"
       y1="68.415451"
       x2="82.586914"
       y2="68.907242"
       gradientUnits="userSpaceOnUse"
       gradientTransform="matrix(1.8315004,0,0,1.8315003,28.583973,-62.16118)" /><linearGradient
       inkscape:collect="always"
       xlink:href="#linearGradient163"
       id="linearGradient164"
       x1="112.28651"
       y1="64.04245"
       x2="179.84193"
       y2="64.04245"
       gradientUnits="userSpaceOnUse" /></defs><g
     inkscape:label="Layer 1"
     inkscape:groupmode="layer"
     id="layer1"
     transform="translate(-6.745834,-6.4034365)"><path
       style="fill:none;stroke:url(#linearGradient152);stroke-width:1.0384;stroke-dasharray:none;stroke-dashoffset:0"
       id="path1"
       transform="matrix(0.96330699,-0.26840201,-0.25040576,-0.96814098,0,0)"
       inkscape:transform-center-x="2.7520696"
       inkscape:transform-center-y="-0.10634675"
       sodipodi:type="arc"
       sodipodi:cx="26.270931"
       sodipodi:cy="-28.583189"
       sodipodi:rx="14.706014"
       sodipodi:ry="11.8868"
       sodipodi:start="3.4906585"
       sodipodi:end="2.268928"
       sodipodi:arc-type="arc"
       d="m 12.451799,-32.648714 a 14.706014,11.8868 0 0 1 14.460599,-7.809961 14.706014,11.8868 0 0 1 13.563452,8.798956 14.706014,11.8868 0 0 1 -6.303383,13.101755 14.706014,11.8868 0 0 1 -17.354379,-0.919408"
       sodipodi:open="true" /><text
       xml:space="preserve"
       style="font-size:3.175px;writing-mode:lr-tb;direction:ltr;fill:none;stroke:#0000f4;stroke-width:1.077;stroke-dasharray:none;stroke-dashoffset:0;stroke-opacity:1"
       x="30.030848"
       y="26.722364"
       id="text155"><tspan
         sodipodi:role="line"
         id="tspan155"
         style="stroke-width:1.077"
         x="30.030848"
         y="26.722364" /></text><text
       xml:space="preserve"
       style="font-size:3.175px;writing-mode:lr-tb;direction:ltr;white-space:pre;inline-size:17.5597;display:inline;fill:none;stroke:#0000f4;stroke-width:1.077;stroke-dasharray:none;stroke-dashoffset:0;stroke-opacity:1"
       x="23.92288"
       y="53.190231"
       id="text156" /><path
       style="font-size:23.7406px;font-family:Dubai;-inkscape-font-specification:Dubai;white-space:pre;inline-size:82.542;fill:url(#linearGradient164);stroke-width:1.15345"
       d="m 118.18091,58.700824 q 1.47192,0 2.44528,0.712218 0.97336,0.712218 1.42444,1.899248 0.47481,1.18703 0.47481,2.587726 0,1.804285 -0.71222,3.110018 -0.68848,1.305733 -1.89925,1.994211 -1.21077,0.664736 -2.75391,0.664736 -1.16329,0 -2.25535,-0.308627 v 4.439492 h -2.0417 V 58.985711 l 2.0417,-0.237406 v 0.925884 q 0.85466,-0.474812 1.68558,-0.712218 0.85466,-0.261147 1.59062,-0.261147 z m -1.18703,9.353797 q 0.97336,0 1.70932,-0.427331 0.7597,-0.451072 1.18703,-1.376955 0.45107,-0.925883 0.45107,-2.302838 0,-1.780545 -0.71221,-2.635207 -0.71222,-0.854662 -2.01796,-0.854662 -1.37695,0 -2.70642,0.78344 v 6.457444 q 1.1158,0.356109 2.08917,0.356109 z m 16.54717,-9.06891 v 0.142444 l -3.96468,10.991898 q -0.52229,1.448176 -1.11581,2.302838 -0.59351,0.878402 -1.35321,1.258252 -0.73596,0.40359 -1.75681,0.40359 -1.04458,0 -2.06543,-0.356109 l 0.54604,-1.566879 q 0.68847,0.213665 1.35321,0.213665 0.54603,0 0.92588,-0.166184 0.37985,-0.166184 0.73596,-0.640997 0.37985,-0.474812 0.73596,-1.424436 l 0.28489,-0.759699 h -0.54604 l -3.98842,-10.255939 v -0.142444 h 2.1604 l 2.44528,6.647368 0.26115,0.712218 0.37985,1.115809 0.59351,-1.828027 2.2791,-6.647368 z m 8.33293,-4.985526 5.79271,15.241466 v 0.142443 h -2.2791 l -1.61436,-4.392011 h -6.5524 l -1.59062,4.392011 h -2.18414 v -0.142443 l 5.76897,-15.241466 z m -3.98842,9.187612 h 5.22294 l -2.61147,-7.12218 z m 27.75275,-9.187612 v 15.383909 h -2.13665 V 57.561275 q -0.35611,1.020846 -0.92589,2.136654 l -3.70353,7.193402 h -2.11291 l -3.63232,-7.193402 q -0.30862,-0.593515 -0.59351,-1.139549 -0.26115,-0.569774 -0.42733,-0.973364 V 69.384094 H 150.017 V 54.000185 h 2.49276 l 3.46613,6.789812 q 1.40069,2.753909 1.8755,4.154605 0.26115,-0.80718 0.71222,-1.828026 0.47481,-1.020846 1.16329,-2.326579 l 3.48987,-6.789812 z m 6.07761,13.484661 h 7.54951 v 1.899248 h -9.73365 V 54.000185 h 2.18414 z"
       id="text157"
       transform="matrix(0.51397618,0,0,0.54988723,-48.718076,-13.612685)"
       aria-label="pyAML" /></g><metadata
     id="metadata1"><rdf:RDF><cc:Work
         rdf:about=""><dc:title>pyAML logo</dc:title><cc:license
           rdf:resource="http://artlibre.org/licence/lal" /></cc:Work><cc:License
         rdf:about="http://artlibre.org/licence/lal"><cc:permits
           rdf:resource="http://creativecommons.org/ns#Reproduction" /><cc:permits
           rdf:resource="http://creativecommons.org/ns#Distribution" /><cc:permits
           rdf:resource="http://creativecommons.org/ns#DerivativeWorks" /><cc:requires
           rdf:resource="http://creativecommons.org/ns#ShareAlike" /><cc:requires
           rdf:resource="http://creativecommons.org/ns#Notice" /><cc:requires
           rdf:resource="http://creativecommons.org/ns#Attribution" /></cc:License></rdf:RDF></metadata></svg>
